<?xml version="1.0" encoding="utf-8"?>
<!-- Generator: Adobe Illustrator 28.1.0, SVG Export Plug-In . SVG Version: 6.00 Build 0)  -->
<svg version="1.1" id="Layer_1" xmlns="http://www.w3.org/2000/svg" xmlns:xlink="http://www.w3.org/1999/xlink" x="0px" y="0px"
	 viewBox="0 0 1263.2 748" style="enable-background:new 0 0 1263.2 748;" xml:space="preserve">
<style type="text/css">
	.st0{fill:none;stroke:#5E4FA2;stroke-width:22.8986;}
	.st1{fill:none;stroke:#5E4FA2;stroke-width:20.9903;}
	.st2{fill:none;stroke:#4478B2;stroke-width:3.8164;}
	.st3{fill:none;stroke:#4BA0B1;stroke-width:1.9082;}
	.st4{fill:none;stroke:#4F63AB;stroke-width:28.6232;}
	.st5{fill:none;stroke:#5E4FA2;stroke-width:9.5411;}
	.st6{fill:none;stroke:#5E4FA2;stroke-width:3.8164;}
	.st7{fill:none;stroke:#4F63AB;stroke-width:7.6329;}
	.st8{fill:none;stroke:#4F63AB;stroke-width:1.9082;}
	.st9{fill:none;stroke:#5E4FA2;stroke-width:5.7246;}
	.st10{fill:none;stroke:#5E4FA2;stroke-width:32.4396;}
	.st11{fill:none;stroke:#438CB4;stroke-width:11.4493;}
	.st12{fill:none;stroke:#4F63AB;stroke-width:19.0821;}
	.st13{fill:none;stroke:#4F63AB;stroke-width:3.8164;}
	.st14{fill:none;stroke:#5CB3AC;stroke-width:1.9082;}
	.st15{fill:none;stroke:#4BA0B1;stroke-width:3.8164;}
	.st16{fill:none;stroke:#5CB3AC;stroke-width:3.8164;}
	.st17{fill:none;stroke:#4478B2;stroke-width:1.9082;}
	.st18{fill:none;stroke:#438CB4;stroke-width:7.6329;}
	.st19{fill:none;stroke:#4478B2;stroke-width:5.7246;}
	.st20{fill:none;stroke:#438CB4;stroke-width:3.8164;}
	.st21{fill:none;stroke:#4F63AB;stroke-width:5.7246;}
	.st22{fill:none;stroke:#438CB4;stroke-width:1.9082;}
	.st23{fill:none;stroke:#5E4FA2;stroke-width:7.6329;}
	.st24{fill:none;stroke:#5E4FA2;stroke-width:13.3575;}
	.st25{fill:none;stroke:#4F63AB;stroke-width:13.3575;}
	.st26{fill:none;stroke:#5E4FA2;stroke-width:1.9082;}
	.st27{fill:none;stroke:#CCEA9F;stroke-width:1.9082;}
	.st28{fill:none;stroke:#72C3A7;stroke-width:1.9082;}
	.st29{fill:none;stroke:#FDF2A8;stroke-width:1.9082;}
	.st30{fill:none;stroke:#EC6449;stroke-width:1.9082;}
	.st31{fill:none;stroke:#72C3A7;stroke-width:3.8164;}
	.st32{fill:none;stroke:#9E0142;stroke-width:5.7246;}
	.st33{fill:none;stroke:#CCEA9F;stroke-width:3.8164;}
	.st34{fill:none;stroke:#B11746;stroke-width:3.8164;}
	.st35{fill:none;stroke:#72C3A7;stroke-width:13.3575;}
	.st36{fill:none;stroke:#FDCA79;stroke-width:1.9082;}
	.st37{fill:none;stroke:#FBF8B0;stroke-width:7.6329;}
	.st38{fill:none;stroke:#F3784C;stroke-width:1.9082;}
	.st39{fill:none;stroke:#FBF8B0;stroke-width:5.7246;}
	.st40{fill:none;stroke:#89CFA5;stroke-width:1.9082;}
	.st41{fill:none;stroke:#A0D9A3;stroke-width:1.9082;}
	.st42{fill:none;stroke:#DDF1A0;stroke-width:3.8164;}
	.st43{fill:none;stroke:#FEE89A;stroke-width:1.9082;}
	.st44{fill:none;stroke:#72C3A7;stroke-width:9.5411;}
	.st45{fill:none;stroke:#FBF8B0;stroke-width:9.5411;}
	.st46{fill:none;stroke:#FEDA89;stroke-width:1.9082;}
	.st47{fill:none;stroke:#FBF8B0;stroke-width:3.8164;}
	.st48{fill:none;stroke:#CCEA9F;stroke-width:7.6329;}
	.st49{fill:none;stroke:#FBF8B0;stroke-width:1.9082;}
	.st50{fill:none;stroke:#D43F4B;stroke-width:1.9082;}
	.st51{fill:none;stroke:#FDB76B;stroke-width:3.8164;}
	.st52{fill:none;stroke:#F88E53;stroke-width:1.9082;}
	.st53{fill:none;stroke:#FDB76B;stroke-width:1.9082;}
	.st54{fill:none;stroke:#F5FAAD;stroke-width:1.9082;}
	.st55{fill:none;stroke:#F88E53;stroke-width:3.8164;}
	.st56{fill:none;stroke:#9E0142;stroke-width:1.9082;}
	.st57{fill:none;stroke:#C42C4A;stroke-width:1.9082;}
	.st58{fill:none;stroke:#FEE89A;stroke-width:7.6329;}
	.st59{fill:none;stroke:#E1524A;stroke-width:1.9082;}
	.st60{fill:none;stroke:#B11746;stroke-width:1.9082;}
	.st61{fill:none;stroke:#CCEA9F;stroke-width:5.7246;}
	.st62{fill:none;stroke:#EBF7A6;stroke-width:3.8164;}
	.st63{fill:none;stroke:#FDB76B;stroke-width:5.7246;}
	.st64{fill:none;stroke:#DDF1A0;stroke-width:1.9082;}
	.st65{fill:none;stroke:#EBF7A6;stroke-width:1.9082;}
	.st66{fill:none;stroke:#FBA35E;stroke-width:1.9082;}
	.st67{fill:none;stroke:#B7E2A1;stroke-width:1.9082;}
	.st68{font-family:'Arial-BoldMT';}
	.st69{font-size:10px;}
	.st70{font-family:'ArialRoundedMTBold';}
	.st71{fill:#7B7B7B;}
	.st72{font-size:12px;}
</style>
<g>
	<rect x="655.1" y="128.2" width="5" height="11.4"/>
	<rect x="655.1" y="144.6" width="5" height="19.1"/>
	<rect x="655.1" y="168.7" width="5" height="5.7"/>
	<rect x="655.1" y="179.4" width="5" height="1.9"/>
	<rect x="655.1" y="186.3" width="5" height="7.6"/>
	<rect x="655.1" y="199" width="5" height="17.2"/>
	<rect x="655.1" y="221.1" width="5" height="3.8"/>
	<rect x="655.1" y="230" width="5" height="7.6"/>
	<rect x="655.1" y="242.6" width="5" height="1.9"/>
	<rect x="655.1" y="249.5" width="5" height="38.2"/>
	<rect x="655.1" y="292.7" width="5" height="7.6"/>
	<rect x="655.1" y="305.3" width="5" height="9.5"/>
	<rect x="655.1" y="319.8" width="5" height="21"/>
	<rect x="655.1" y="345.8" width="5" height="3.8"/>
	<rect x="655.1" y="354.7" width="5" height="74.4"/>
	<rect x="655.1" y="434.1" width="5" height="5.7"/>
	<rect x="655.1" y="444.8" width="5" height="13.4"/>
	<rect x="655.1" y="463.2" width="5" height="19.1"/>
	<rect x="655.1" y="487.2" width="5" height="47.7"/>
	<rect x="655.1" y="539.9" width="5" height="1.9"/>
	<rect x="655.1" y="546.8" width="5" height="9.5"/>
	<rect x="655.1" y="561.4" width="5" height="9.5"/>
	<rect x="655.1" y="575.9" width="5" height="57.2"/>
	<rect x="1045.1" y="90.7" width="5" height="19.1"/>
	<rect x="1045.1" y="114.8" width="5" height="3.8"/>
	<rect x="1045.1" y="123.6" width="5" height="17.2"/>
	<rect x="1045.1" y="145.7" width="5" height="17.2"/>
	<rect x="1045.1" y="167.9" width="5" height="13.4"/>
	<rect x="265.1" y="170.7" width="5" height="17.2"/>
	<rect x="265.1" y="192.9" width="5" height="21"/>
	<rect x="265.1" y="218.8" width="5" height="36.3"/>
	<rect x="265.1" y="260.1" width="5" height="28.6"/>
	<rect x="265.1" y="293.7" width="5" height="133.6"/>
	<rect x="265.1" y="432.3" width="5" height="158.4"/>
	<rect x="1045.1" y="186.3" width="5" height="47.7"/>
	<rect x="1045.1" y="239" width="5" height="13.4"/>
	<rect x="1045.1" y="257.3" width="5" height="22.9"/>
	<rect x="1045.1" y="285.2" width="5" height="11.4"/>
	<rect x="1045.1" y="301.7" width="5" height="5.7"/>
	<rect x="1045.1" y="312.4" width="5" height="24.8"/>
	<rect x="1045.1" y="342.2" width="5" height="3.8"/>
	<rect x="1045.1" y="351" width="5" height="7.6"/>
	<rect x="1045.1" y="363.7" width="5" height="3.8"/>
	<rect x="1045.1" y="372.5" width="5" height="5.7"/>
	<rect x="1045.1" y="383.2" width="5" height="7.6"/>
	<rect x="1045.1" y="395.8" width="5" height="1.9"/>
	<rect x="1045.1" y="402.8" width="5" height="1.9"/>
	<rect x="1045.1" y="409.7" width="5" height="11.4"/>
	<rect x="1045.1" y="426.1" width="5" height="3.8"/>
	<rect x="1045.1" y="434.9" width="5" height="7.6"/>
	<rect x="1045.1" y="447.6" width="5" height="28.6"/>
	<rect x="1045.1" y="481.2" width="5" height="13.4"/>
	<rect x="1045.1" y="499.5" width="5" height="9.5"/>
	<rect x="1045.1" y="514.1" width="5" height="3.8"/>
	<rect x="1045.1" y="522.9" width="5" height="3.8"/>
	<rect x="1045.1" y="531.7" width="5" height="5.7"/>
	<rect x="1045.1" y="542.4" width="5" height="5.7"/>
	<rect x="1045.1" y="553.2" width="5" height="1.9"/>
	<rect x="1045.1" y="560.1" width="5" height="1.9"/>
	<rect x="1045.1" y="567" width="5" height="1.9"/>
	<rect x="1045.1" y="573.9" width="5" height="15.3"/>
	<rect x="1045.1" y="594.2" width="5" height="1.9"/>
	<rect x="1045.1" y="601.1" width="5" height="7.6"/>
	<rect x="1045.1" y="613.7" width="5" height="3.8"/>
	<rect x="1045.1" y="622.5" width="5" height="21"/>
	<rect x="1045.1" y="648.5" width="5" height="11.4"/>
	<rect x="1045.1" y="665" width="5" height="5.7"/>
</g>
<g>
	<g>
		<path class="st0" d="M270.1,546.8c192.5,0,192.5-23.3,385-23.3"/>
	</g>
	<g>
		<path class="st1" d="M270.1,580.2c192.5,0,192.5,42.5,385,42.5"/>
	</g>
	<g>
		<path class="st2" d="M270.1,279.2c192.5,0,192.5,217.6,385,217.6"/>
	</g>
	<g>
		<path class="st3" d="M270.1,203.3c192.5,0,192.5,143.4,385,143.4"/>
	</g>
	<g>
		<path class="st4" d="M270.1,413c192.5,0,192.5,184.9,385,184.9"/>
	</g>
	<g>
		<path class="st5" d="M270.1,446.6c192.5,0,192.5-235.2,385-235.2"/>
	</g>
	<g>
		<path class="st6" d="M270.1,434.2c192.5,0,192.5-296.5,385-296.5"/>
	</g>
	<g>
		<path class="st7" d="M270.1,303.3c192.5,0,192.5-147.2,385-147.2"/>
	</g>
	<g>
		<path class="st8" d="M270.1,344.3c192.5,0,192.5,4.4,385,4.4"/>
	</g>
	<g>
		<path class="st9" d="M270.1,475.2c192.5,0,192.5-177.8,385-177.8"/>
	</g>
	<g>
		<path class="st10" d="M270.1,505.8c192.5,0,192.5-92.9,385-92.9"/>
	</g>
	<g>
		<path class="st6" d="M270.1,453.3c192.5,0,192.5-230.2,385-230.2"/>
	</g>
	<g>
		<path class="st11" d="M270.1,243.6c192.5,0,192.5,124.4,385,124.4"/>
	</g>
	<g>
		<path class="st8" d="M270.1,397.7c192.5,0,192.5,168.4,385,168.4"/>
	</g>
	<g>
		<path class="st12" d="M270.1,354.8c192.5,0,192.5,32.3,385,32.3"/>
	</g>
	<g>
		<path class="st13" d="M270.1,394.9c192.5,0,192.5,153.9,385,153.9"/>
	</g>
	<g>
		<path class="st7" d="M270.1,375.8c192.5,0,192.5,93.1,385,93.1"/>
	</g>
	<g>
		<path class="st13" d="M270.1,341.4c192.5,0,192.5-10.1,385-10.1"/>
	</g>
	<g>
		<path class="st14" d="M270.1,186.9c192.5,0,192.5,390,385,390"/>
	</g>
	<g>
		<path class="st9" d="M270.1,563c192.5,0,192.5-9.5,385-9.5"/>
	</g>
	<g>
		<path class="st6" d="M270.1,480c192.5,0,192.5-167.1,385-167.1"/>
	</g>
	<g>
		<path class="st15" d="M270.1,206.2c192.5,0,192.5,154.2,385,154.2"/>
	</g>
	<g>
		<path class="st16" d="M270.1,178.3c192.5,0,192.5,178.2,385,178.2"/>
	</g>
	<g>
		<path class="st14" d="M270.1,171.6c192.5,0,192.5,8.8,385,8.8"/>
	</g>
	<g>
		<path class="st15" d="M270.1,196.7c192.5,0,192.5,58.6,385,58.6"/>
	</g>
	<g>
		<path class="st17" d="M270.1,264.9c192.5,0,192.5-33.9,385-33.9"/>
	</g>
	<g>
		<path class="st18" d="M270.1,230.3c192.5,0,192.5,30.7,385,30.7"/>
	</g>
	<g>
		<path class="st19" d="M270.1,285.9c192.5,0,192.5,294.8,385,294.8"/>
	</g>
	<g>
		<path class="st6" d="M270.1,567.8c192.5,0,192.5,1.2,385,1.2"/>
	</g>
	<g>
		<path class="st20" d="M270.1,253.2c192.5,0,192.5,239.8,385,239.8"/>
	</g>
	<g>
		<path class="st8" d="M270.1,323.3c192.5,0,192.5-90.5,385-90.5"/>
	</g>
	<g>
		<path class="st13" d="M270.1,320.4c192.5,0,192.5-115.7,385-115.7"/>
	</g>
	<g>
		<path class="st21" d="M270.1,367.2c192.5,0,192.5,69.7,385,69.7"/>
	</g>
	<g>
		<path class="st6" d="M270.1,457.1c192.5,0,192.5-221.4,385-221.4"/>
	</g>
	<g>
		<path class="st21" d="M270.1,296.6c192.5,0,192.5-163.6,385-163.6"/>
	</g>
	<g>
		<path class="st16" d="M270.1,174.5c192.5,0,192.5,76.9,385,76.9"/>
	</g>
	<g>
		<path class="st3" d="M270.1,211c192.5,0,192.5,279.1,385,279.1"/>
	</g>
	<g>
		<path class="st21" d="M270.1,309.9c192.5,0,192.5-138.4,385-138.4"/>
	</g>
	<g>
		<path class="st22" d="M270.1,235.1c192.5,0,192.5,71.2,385,71.2"/>
	</g>
	<g>
		<path class="st23" d="M270.1,485.7c192.5,0,192.5-148.7,385-148.7"/>
	</g>
	<g>
		<path class="st15" d="M270.1,200.5c192.5,0,192.5,121.3,385,121.3"/>
	</g>
	<g>
		<path class="st24" d="M270.1,465.7c192.5,0,192.5-184.7,385-184.7"/>
	</g>
	<g>
		<path class="st17" d="M270.1,282c192.5,0,192.5,282.2,385,282.2"/>
	</g>
	<g>
		<path class="st21" d="M270.1,315.7c192.5,0,192.5-126.5,385-126.5"/>
	</g>
	<g>
		<path class="st14" d="M270.1,185c192.5,0,192.5,303.2,385,303.2"/>
	</g>
	<g>
		<path class="st8" d="M270.1,334.7c192.5,0,192.5-41.1,385-41.1"/>
	</g>
	<g>
		<path class="st7" d="M270.1,330c192.5,0,192.5-59.5,385-59.5"/>
	</g>
	<g>
		<path class="st3" d="M270.1,193.8c192.5,0,192.5-48.2,385-48.2"/>
	</g>
	<g>
		<path class="st25" d="M270.1,386.3c192.5,0,192.5,119.1,385,119.1"/>
	</g>
	<g>
		<path class="st2" d="M270.1,269.6c192.5,0,192.5,57.8,385,57.8"/>
	</g>
	<g>
		<path class="st26" d="M270.1,440.9c192.5,0,192.5-247.9,385-247.9"/>
	</g>
	<g>
		<path class="st17" d="M270.1,276.3c192.5,0,192.5,175.2,385,175.2"/>
	</g>
	<g>
		<path class="st22" d="M270.1,225.5c192.5,0,192.5-25.6,385-25.6"/>
	</g>
	<g>
		<path class="st6" d="M270.1,438c192.5,0,192.5-276.2,385-276.2"/>
	</g>
	<g>
		<path class="st5" d="M270.1,530.6c192.5,0,192.5-53.1,385-53.1"/>
	</g>
	<g>
		<path class="st22" d="M270.1,250.3c192.5,0,192.5,213.8,385,213.8"/>
	</g>
	<g>
		<path class="st20" d="M270.1,222.7c192.5,0,192.5-74.2,385-74.2"/>
	</g>
	<g>
		<path class="st13" d="M270.1,337.6c192.5,0,192.5-28.5,385-28.5"/>
	</g>
	<g>
		<path class="st17" d="M270.1,266.8c192.5,0,192.5-1.1,385-1.1"/>
	</g>
	<g>
		<path class="st22" d="M270.1,237c192.5,0,192.5,87.6,385,87.6"/>
	</g>
	<g>
		<path class="st8" d="M270.1,371c192.5,0,192.5,82.4,385,82.4"/>
	</g>
	<g>
		<path class="st8" d="M270.1,325.2c192.5,0,192.5-81.7,385-81.7"/>
	</g>
	<g>
		<path class="st26" d="M270.1,559.2c192.5,0,192.5-18.3,385-18.3"/>
	</g>
	<g>
		<path class="st6" d="M270.1,523.9c192.5,0,192.5-67.6,385-67.6"/>
	</g>
	<g>
		<path class="st3" d="M270.1,209.1c192.5,0,192.5,240.5,385,240.5"/>
	</g>
	<g>
		<path class="st17" d="M270.1,261.1c192.5,0,192.5-109.7,385-109.7"/>
	</g>
	<g>
		<path class="st16" d="M270.1,182.1c192.5,0,192.5,264.6,385,264.6"/>
	</g>
	<g>
		<path class="st2" d="M270.1,273.5c192.5,0,192.5,102.2,385,102.2"/>
	</g>
	<g>
		<path class="st3" d="M270.1,212.9c192.5,0,192.5,349.5,385,349.5"/>
	</g>
	<g>
		<path class="st22" d="M270.1,219.8c192.5,0,192.5-90.7,385-90.7"/>
	</g>
	<g>
		<path class="st17" d="M270.1,263c192.5,0,192.5-61.1,385-61.1"/>
	</g>
	<g>
		<path class="st27" d="M660.1,497.7c192.5,0,192.5-339.6,385-339.6"/>
	</g>
	<g>
		<path class="st28" d="M660.1,626.5c192.5,0,192.5-9.9,385-9.9"/>
	</g>
	<g>
		<path class="st27" d="M660.1,516.8c192.5,0,192.5-45.4,385-45.4"/>
	</g>
	<g>
		<path class="st29" d="M660.1,348.7c192.5,0,192.5,255.2,385,255.2"/>
	</g>
	<g>
		<path class="st28" d="M660.1,613.1c192.5,0,192.5-255.4,385-255.4"/>
	</g>
	<g>
		<path class="st30" d="M660.1,201.8c192.5,0,192.5-55.1,385-55.1"/>
	</g>
	<g>
		<path class="st31" d="M660.1,596.9c192.5,0,192.5-291.4,385-291.4"/>
	</g>
	<g>
		<path class="st32" d="M660.1,131c192.5,0,192.5,58.1,385,58.1"/>
	</g>
	<g>
		<path class="st33" d="M660.1,519.7c192.5,0,192.5-28.9,385-28.9"/>
	</g>
	<g>
		<path class="st34" d="M660.1,148.4c192.5,0,192.5,45.5,385,45.5"/>
	</g>
	<g>
		<path class="st35" d="M660.1,605.5c192.5,0,192.5-275,385-275"/>
	</g>
	<g>
		<path class="st31" d="M660.1,629.4c192.5,0,192.5,12.2,385,12.2"/>
	</g>
	<g>
		<path class="st28" d="M660.1,586.4c192.5,0,192.5-424.5,385-424.5"/>
	</g>
	<g>
		<path class="st29" d="M660.1,346.8c192.5,0,192.5-103,385-103"/>
	</g>
	<g>
		<path class="st36" d="M660.1,299.3c192.5,0,192.5,154.9,385,154.9"/>
	</g>
	<g>
		<path class="st37" d="M660.1,404.3c192.5,0,192.5,58.6,385,58.6"/>
	</g>
	<g>
		<path class="st38" d="M660.1,222.1c192.5,0,192.5-97.6,385-97.6"/>
	</g>
	<g>
		<path class="st28" d="M660.1,594.1c192.5,0,192.5-314.8,385-314.8"/>
	</g>
	<g>
		<path class="st39" d="M660.1,410.9c192.5,0,192.5,75,385,75"/>
	</g>
	<g>
		<path class="st40" d="M660.1,564.3c192.5,0,192.5-335,385-335"/>
	</g>
	<g>
		<path class="st37" d="M660.1,366.1c192.5,0,192.5-151.2,385-151.2"/>
	</g>
	<g>
		<path class="st41" d="M660.1,551.6c192.5,0,192.5-324.3,385-324.3"/>
	</g>
	<g>
		<path class="st42" d="M660.1,480.3c192.5,0,192.5,151.7,385,151.7"/>
	</g>
	<g>
		<path class="st43" d="M660.1,339.9c192.5,0,192.5,287.4,385,287.4"/>
	</g>
	<g>
		<path class="st44" d="M660.1,580.7c192.5,0,192.5-444.7,385-444.7"/>
	</g>
	<g>
		<path class="st45" d="M660.1,380.4c192.5,0,192.5-112.6,385-112.6"/>
	</g>
	<g>
		<path class="st33" d="M660.1,508.2c192.5,0,192.5-231.8,385-231.8"/>
	</g>
	<g>
		<path class="st41" d="M660.1,549.7c192.5,0,192.5-389.6,385-389.6"/>
	</g>
	<g>
		<path class="st46" d="M660.1,308.2c192.5,0,192.5-157.6,385-157.6"/>
	</g>
	<g>
		<path class="st47" d="M660.1,356.6c192.5,0,192.5-262.1,385-262.1"/>
	</g>
	<g>
		<path class="st48" d="M660.1,491.1c192.5,0,192.5-385.1,385-385.1"/>
	</g>
	<g>
		<path class="st49" d="M660.1,420.5c192.5,0,192.5,105.3,385,105.3"/>
	</g>
	<g>
		<path class="st50" d="M660.1,180.4c192.5,0,192.5,364.9,385,364.9"/>
	</g>
	<g>
		<path class="st51" d="M660.1,255.2c192.5,0,192.5-48,385-48"/>
	</g>
	<g>
		<path class="st52" d="M660.1,230.9c192.5,0,192.5-28.4,385-28.4"/>
	</g>
	<g>
		<path class="st53" d="M660.1,261.9c192.5,0,192.5,104.6,385,104.6"/>
	</g>
	<g>
		<path class="st47" d="M660.1,398.5c192.5,0,192.5,40.2,385,40.2"/>
	</g>
	<g>
		<path class="st28" d="M660.1,617c192.5,0,192.5-175.4,385-175.4"/>
	</g>
	<g>
		<path class="st40" d="M660.1,566.2c192.5,0,192.5-92.8,385-92.8"/>
	</g>
	<g>
		<path class="st51" d="M660.1,251.4c192.5,0,192.5-79.7,385-79.7"/>
	</g>
	<g>
		<path class="st38" d="M660.1,224c192.5,0,192.5-75.4,385-75.4"/>
	</g>
	<g>
		<path class="st46" d="M660.1,313.9c192.5,0,192.5,353.9,385,353.9"/>
	</g>
	<g>
		<path class="st36" d="M660.1,293.6c192.5,0,192.5-7.4,385-7.4"/>
	</g>
	<g>
		<path class="st41" d="M660.1,553.5c192.5,0,192.5-230.6,385-230.6"/>
	</g>
	<g>
		<path class="st27" d="M660.1,526.4c192.5,0,192.5,59.9,385,59.9"/>
	</g>
	<g>
		<path class="st52" d="M660.1,232.8c192.5,0,192.5,80.5,385,80.5"/>
	</g>
	<g>
		<path class="st30" d="M660.1,203.7c192.5,0,192.5-3.2,385-3.2"/>
	</g>
	<g>
		<path class="st27" d="M660.1,511.1c192.5,0,192.5-215.4,385-215.4"/>
	</g>
	<g>
		<path class="st49" d="M660.1,361.3c192.5,0,192.5-186.7,385-186.7"/>
	</g>
	<g>
		<path class="st54" d="M660.1,435c192.5,0,192.5-258.5,385-258.5"/>
	</g>
	<g>
		<path class="st49" d="M660.1,393.8c192.5,0,192.5,24.5,385,24.5"/>
	</g>
	<g>
		<path class="st49" d="M660.1,422.4c192.5,0,192.5,124.8,385,124.8"/>
	</g>
	<g>
		<path class="st55" d="M660.1,235.7c192.5,0,192.5,343.9,385,343.9"/>
	</g>
	<g>
		<path class="st56" d="M660.1,136.8c192.5,0,192.5,227.9,385,227.9"/>
	</g>
	<g>
		<path class="st54" d="M660.1,438.8c192.5,0,192.5-83,385-83"/>
	</g>
	<g>
		<path class="st51" d="M660.1,259c192.5,0,192.5,2.1,385,2.1"/>
	</g>
	<g>
		<path class="st27" d="M660.1,524.4c192.5,0,192.5,36.6,385,36.6"/>
	</g>
	<g>
		<path class="st57" d="M660.1,169.7c192.5,0,192.5,27.1,385,27.1"/>
	</g>
	<g>
		<path class="st49" d="M660.1,424.3c192.5,0,192.5,190.4,385,190.4"/>
	</g>
	<g>
		<path class="st27" d="M660.1,495.8c192.5,0,192.5-369.4,385-369.4"/>
	</g>
	<g>
		<path class="st46" d="M660.1,312c192.5,0,192.5,144.2,385,144.2"/>
	</g>
	<g>
		<path class="st58" d="M660.1,327.5c192.5,0,192.5-36.5,385-36.5"/>
	</g>
	<g>
		<path class="st43" d="M660.1,338c192.5,0,192.5,264,385,264"/>
	</g>
	<g>
		<path class="st40" d="M660.1,562.3c192.5,0,192.5-432.1,385-432.1"/>
	</g>
	<g>
		<path class="st49" d="M660.1,426.2c192.5,0,192.5,203,385,203"/>
	</g>
	<g>
		<path class="st59" d="M660.1,187.3c192.5,0,192.5,11.4,385,11.4"/>
	</g>
	<g>
		<path class="st28" d="M660.1,632.2c192.5,0,192.5,26.8,385,26.8"/>
	</g>
	<g>
		<path class="st27" d="M660.1,522.5c192.5,0,192.5,31.6,385,31.6"/>
	</g>
	<g>
		<path class="st36" d="M660.1,297.4c192.5,0,192.5,138.4,385,138.4"/>
	</g>
	<g>
		<path class="st43" d="M660.1,322.7c192.5,0,192.5-112.6,385-112.6"/>
	</g>
	<g>
		<path class="st60" d="M660.1,151.3c192.5,0,192.5,88.6,385,88.6"/>
	</g>
	<g>
		<path class="st31" d="M660.1,591.2c192.5,0,192.5-359.1,385-359.1"/>
	</g>
	<g>
		<path class="st51" d="M660.1,280c192.5,0,192.5,303.4,385,303.4"/>
	</g>
	<g>
		<path class="st61" d="M660.1,530.2c192.5,0,192.5,106.7,385,106.7"/>
	</g>
	<g>
		<path class="st39" d="M660.1,372.8c192.5,0,192.5-125.2,385-125.2"/>
	</g>
	<g>
		<path class="st43" d="M660.1,334.2c192.5,0,192.5,123.9,385,123.9"/>
	</g>
	<g>
		<path class="st59" d="M660.1,193c192.5,0,192.5,402.1,385,402.1"/>
	</g>
	<g>
		<path class="st62" d="M660.1,456.2c192.5,0,192.5,12.3,385,12.3"/>
	</g>
	<g>
		<path class="st63" d="M660.1,273.4c192.5,0,192.5,177.1,385,177.1"/>
	</g>
	<g>
		<path class="st30" d="M660.1,209.5c192.5,0,192.5,314.4,385,314.4"/>
	</g>
	<g>
		<path class="st34" d="M660.1,156.1c192.5,0,192.5,419.7,385,419.7"/>
	</g>
	<g>
		<path class="st27" d="M660.1,514.9c192.5,0,192.5-193.9,385-193.9"/>
	</g>
	<g>
		<path class="st64" d="M660.1,471.7c192.5,0,192.5-198.2,385-198.2"/>
	</g>
	<g>
		<path class="st61" d="M660.1,503.5c192.5,0,192.5-280,385-280"/>
	</g>
	<g>
		<path class="st64" d="M660.1,473.6c192.5,0,192.5-96.4,385-96.4"/>
	</g>
	<g>
		<path class="st34" d="M660.1,161.8c192.5,0,192.5,488.6,385,488.6"/>
	</g>
	<g>
		<path class="st42" d="M660.1,465.1c192.5,0,192.5-364.8,385-364.8"/>
	</g>
	<g>
		<path class="st46" d="M660.1,310.1c192.5,0,192.5-68.2,385-68.2"/>
	</g>
	<g>
		<path class="st39" d="M660.1,416.7c192.5,0,192.5,85.7,385,85.7"/>
	</g>
	<g>
		<path class="st28" d="M660.1,622.7c192.5,0,192.5-34.5,385-34.5"/>
	</g>
	<g>
		<path class="st49" d="M660.1,359.4c192.5,0,192.5-207,385-207"/>
	</g>
	<g>
		<path class="st28" d="M660.1,620.8c192.5,0,192.5-127.2,385-127.2"/>
	</g>
	<g>
		<path class="st53" d="M660.1,286.7c192.5,0,192.5,379.2,385,379.2"/>
	</g>
	<g>
		<path class="st27" d="M660.1,534c192.5,0,192.5,135.7,385,135.7"/>
	</g>
	<g>
		<path class="st65" d="M660.1,447.7c192.5,0,192.5-228,385-228"/>
	</g>
	<g>
		<path class="st66" d="M660.1,243.6c192.5,0,192.5-39.1,385-39.1"/>
	</g>
	<g>
		<path class="st43" d="M660.1,332.2c192.5,0,192.5-17,385-17"/>
	</g>
	<g>
		<path class="st42" d="M660.1,468.9c192.5,0,192.5-313.6,385-313.6"/>
	</g>
	<g>
		<path class="st59" d="M660.1,189.2c192.5,0,192.5,162.8,385,162.8"/>
	</g>
	<g>
		<path class="st67" d="M660.1,540.9c192.5,0,192.5-34.7,385-34.7"/>
	</g>
	<g>
		<path class="st27" d="M660.1,513c192.5,0,192.5-210.4,385-210.4"/>
	</g>
	<g>
		<path class="st49" d="M660.1,390c192.5,0,192.5-36.1,385-36.1"/>
	</g>
	<g>
		<path class="st47" d="M660.1,387.1c192.5,0,192.5-68.9,385-68.9"/>
	</g>
	<g>
		<path class="st40" d="M660.1,568.1c192.5,0,192.5-59.9,385-59.9"/>
	</g>
	<g>
		<path class="st60" d="M660.1,153.2c192.5,0,192.5,390.2,385,390.2"/>
	</g>
	<g>
		<path class="st43" d="M660.1,336.1c192.5,0,192.5,198.5,385,198.5"/>
	</g>
	<g>
		<path class="st59" d="M660.1,191.1c192.5,0,192.5,205.7,385,205.7"/>
	</g>
	<g>
		<path class="st30" d="M660.1,207.6c192.5,0,192.5,205,385,205"/>
	</g>
	<g>
		<path class="st27" d="M660.1,499.6c192.5,0,192.5-321.2,385-321.2"/>
	</g>
	<g>
		<path class="st62" d="M660.1,450.5c192.5,0,192.5-76.1,385-76.1"/>
	</g>
	<g>
		<path class="st30" d="M660.1,211.4c192.5,0,192.5,321.3,385,321.3"/>
	</g>
	<g>
		<path class="st49" d="M660.1,428.1c192.5,0,192.5,229,385,229"/>
	</g>
	<g>
		<path class="st41" d="M660.1,555.4c192.5,0,192.5-18.9,385-18.9"/>
	</g>
	<g>
		<path class="st64" d="M660.1,477.5c192.5,0,192.5,39.5,385,39.5"/>
	</g>
	<g>
		<path class="st60" d="M660.1,145.6c192.5,0,192.5,23.3,385,23.3"/>
	</g>
	<g>
		<path class="st28" d="M660.1,624.6c192.5,0,192.5-16.8,385-16.8"/>
	</g>
	<g>
		<path class="st28" d="M660.1,618.9c192.5,0,192.5-143.6,385-143.6"/>
	</g>
	<g>
		<path class="st51" d="M660.1,268.6c192.5,0,192.5,146.8,385,146.8"/>
	</g>
	<g>
		<path class="st40" d="M660.1,570c192.5,0,192.5,35.9,385,35.9"/>
	</g>
	<g>
		<path class="st56" d="M660.1,138.7c192.5,0,192.5,271.9,385,271.9"/>
	</g>
	<g>
		<path class="st49" d="M660.1,395.7c192.5,0,192.5,31.4,385,31.4"/>
	</g>
	<g>
		<path class="st43" d="M660.1,320.8c192.5,0,192.5-229.2,385-229.2"/>
	</g>
	<g>
		<path class="st41" d="M660.1,547.8c192.5,0,192.5-419.5,385-419.5"/>
	</g>
	<g>
		<path class="st28" d="M660.1,615c192.5,0,192.5-225.2,385-225.2"/>
	</g>
	<g>
		<path class="st51" d="M660.1,264.8c192.5,0,192.5,122.3,385,122.3"/>
	</g>
	<g>
		<path class="st65" d="M660.1,445.7c192.5,0,192.5-348.4,385-348.4"/>
	</g>
	<g>
		<path class="st60" d="M660.1,158.9c192.5,0,192.5,464.5,385,464.5"/>
	</g>
	<g>
		<path class="st53" d="M660.1,277.2c192.5,0,192.5,205,385,205"/>
	</g>
	<g>
		<path class="st57" d="M660.1,173.5c192.5,0,192.5,341.6,385,341.6"/>
	</g>
	<g>
		<path class="st46" d="M660.1,306.3c192.5,0,192.5-188.6,385-188.6"/>
	</g>
	<g>
		<path class="st36" d="M660.1,295.5c192.5,0,192.5,49.6,385,49.6"/>
	</g>
	<g>
		<path class="st30" d="M660.1,199.9c192.5,0,192.5-84.2,385-84.2"/>
	</g>
	<g>
		<path class="st57" d="M660.1,171.6c192.5,0,192.5,212.6,385,212.6"/>
	</g>
	<g>
		<path class="st30" d="M660.1,215.2c192.5,0,192.5,438.1,385,438.1"/>
	</g>
	<g>
		<path class="st54" d="M660.1,436.9c192.5,0,192.5-185.5,385-185.5"/>
	</g>
	<g>
		<path class="st53" d="M660.1,284.8c192.5,0,192.5,370.4,385,370.4"/>
	</g>
	<g>
		<path class="st56" d="M660.1,134.9c192.5,0,192.5,123.4,385,123.4"/>
	</g>
	<g>
		<path class="st30" d="M660.1,213.3c192.5,0,192.5,354.6,385,354.6"/>
	</g>
	<g>
		<path class="st49" d="M660.1,391.9c192.5,0,192.5,11.8,385,11.8"/>
	</g>
	<g>
		<path class="st65" d="M660.1,453.4c192.5,0,192.5-33.2,385-33.2"/>
	</g>
	<g>
		<path class="st64" d="M660.1,475.6c192.5,0,192.5-46.6,385-46.6"/>
	</g>
	<g>
		<path class="st53" d="M660.1,282.9c192.5,0,192.5,342.5,385,342.5"/>
	</g>
	<g>
		<path class="st28" d="M660.1,588.3c192.5,0,192.5-408,385-408"/>
	</g>
	<g>
		<path class="st30" d="M660.1,205.7c192.5,0,192.5,137.5,385,137.5"/>
	</g>
</g>
<text transform="matrix(1 0 0 1 664.1244 133.3824)" class="st68 st69">4</text>
<text transform="matrix(1 0 0 1 664.1244 153.6481)" class="st68 st69">4.5</text>
<text transform="matrix(1 0 0 1 664.1244 171.0515)" class="st68 st69">4.6</text>
<text transform="matrix(1 0 0 1 664.1244 179.8679)" class="st68 st69">4.7</text>
<text transform="matrix(1 0 0 1 664.1244 189.6384)" class="st68 st69">4.8</text>
<text transform="matrix(1 0 0 1 664.1244 207.0418)" class="st68 st69">5</text>
<text transform="matrix(1 0 0 1 664.1244 222.537)" class="st68 st69">5.2</text>
<text transform="matrix(1 0 0 1 664.1244 233.2616)" class="st68 st69">5.3</text>
<text transform="matrix(1 0 0 1 664.1244 243.0322)" class="st68 st69">5.4</text>
<text transform="matrix(1 0 0 1 664.1244 268.0684)" class="st68 st69">5.5</text>
<text transform="matrix(1 0 0 1 664.1244 295.9669)" class="st68 st69">5.6</text>
<text transform="matrix(1 0 0 1 664.1244 309.5539)" class="st68 st69">5.7</text>
<text transform="matrix(1 0 0 1 664.1244 329.8196)" class="st68 st69">5.8</text>
<text transform="matrix(1 0 0 1 664.1244 347.223)" class="st68 st69">5.9</text>
<text transform="matrix(1 0 0 1 664.1244 391.3413)" class="st68 st69">6</text>
<text transform="matrix(1 0 0 1 664.1244 436.4138)" class="st68 st69">6.1</text>
<text transform="matrix(1 0 0 1 664.1244 450.9548)" class="st68 st69">6.2</text>
<text transform="matrix(1 0 0 1 664.1244 472.1747)" class="st68 st69">6.3</text>
<text transform="matrix(1 0 0 1 664.1244 510.5684)" class="st68 st69">6.5</text>
<text transform="matrix(1 0 0 1 664.1244 540.3751)" class="st68 st69">6.6</text>
<text transform="matrix(1 0 0 1 664.1244 551.0998)" class="st68 st69">6.7</text>
<text transform="matrix(1 0 0 1 664.1244 565.6409)" class="st68 st69">6.8</text>
<text transform="matrix(1 0 0 1 664.1244 604.0346)" class="st68 st69">7</text>
<text transform="matrix(1 0 0 1 208.9999 179.2639)" class="st68 st69">Diseñador</text>
<text transform="matrix(1 0 0 1 43.2283 204.9266)" class="st68 st69">Diseñador con mención Industrial y Servicios</text>
<text transform="matrix(1 0 0 1 32.1899 238.5494)" class="st68 st69">Diseñador con mención en Visualidad y Medios</text>
<text transform="matrix(1 0 0 1 203.4228 276.3168)" class="st68 st69">Diseñadora</text>
<text transform="matrix(1 0 0 1 36.0957 359.9887)" class="st68 st69">Diseñadora con mención Industrial y Servicios</text>
<text transform="matrix(1 0 0 1 27.5669 505.7766)" class="st68 st69">Diseñadora con mención en Visualidad y Medios</text>
<text transform="matrix(1 0 0 1 1061.9769 102.3655)" class="st70 st69">Abud Carrillo, Jenny</text>
<text transform="matrix(1 0 0 1 1061.9769 118.2952)" class="st70 st69">Benavides Bermúdez, Paola</text>
<text transform="matrix(1 0 0 1 1061.9774 133.9014)" class="st70 st69">Castillo Espinoza, Eduardo</text>
<text transform="matrix(1 0 0 1 1061.9774 157.2288)" class="st70 st69">Cortez Orellana, Felipe</text>
<text transform="matrix(1 0 0 1 1062.2469 176.5102)" class="st70 st69">De la Sotta Lazzerini, Paola</text>
<text transform="matrix(1 0 0 1 1063.037 211.5763)" class="st70 st69">Domínguez González, Pablo</text>
<text transform="matrix(1 0 0 1 1062.7469 250.3265)" class="st70 st69">Donoso Cisternas, Sergio</text>
<text transform="matrix(1 0 0 1 1063.827 271.5524)" class="st70 st69">Dueñas Santander, Rodrigo</text>
<text transform="matrix(1 0 0 1 1063.827 293.9559)" class="st70 st69">Gatica Ramírez, Pamela</text>
<text transform="matrix(1 0 0 1 1064.6171 308.1648)" class="st70 st69">Gómez Moya, Cristián</text>
<text transform="matrix(1 0 0 1 1064.3168 326.4478)" class="st70 st69">Jacob Dazarola, Rubén</text>
<text transform="matrix(1 0 0 1 1065.1068 345.8336)" class="st70 st69">Jove Avilés, Trinidad</text>
<text transform="matrix(1 0 0 1 1065.6259 359.111)" class="st70 st69">Lares López, Lorna</text>
<text transform="matrix(1 0 0 1 1065.6263 368.0076)" class="st70 st69">Lepe Muñoz, Juan Carlos</text>
<text transform="matrix(1 0 0 1 1066.3763 379.0867)" class="st70 st69">Maldonado de la Fuente, Felix</text>
<text transform="matrix(1 0 0 1 1066.3763 390.8458)" class="st70 st69">Marín Pacheco, Antonio</text>
<text transform="matrix(1 0 0 1 1066.3759 400.5644)" class="st70 st69">Molina Oyarzún, Raúl</text>
<text transform="matrix(1 0 0 1 1066.3759 410.2627)" class="st70 st69">Mora Briones, Alfredo</text>
<text transform="matrix(1 0 0 1 1066.3759 420.1575)" class="st70 st69">Morales Mujica, María Paz</text>
<text transform="matrix(1 0 0 1 1066.3759 431.7336)" class="st70 st69">Méndez Olivares, Iván</text>
<text transform="matrix(1 0 0 1 1067.0961 441.6068)" class="st70 st69">Nuñez Gutiérrez, Pablo</text>
<text transform="matrix(1 0 0 1 1066.3763 464.1069)" class="st70 st69">Ode Saleh, Verónica</text>
<text transform="matrix(1 0 0 1 1065.2963 490.0664)" class="st70 st69">Osses Flores, Roberto</text>
<text transform="matrix(1 0 0 1 1065.7465 508.2254)" class="st70 st69">Pagueguy Fenner, Sebastián</text>
<text transform="matrix(1 0 0 1 1065.7465 519.4754)" class="st70 st69">Perea Morales, René</text>
<text transform="matrix(1 0 0 1 1065.2958 529.2817)" class="st70 st69">Perelli Soto, Bruno</text>
<text transform="matrix(1 0 0 1 1065.2963 539.9404)" class="st70 st69">Pradenas Guentherodt, Gabriela</text>
<text transform="matrix(1 0 0 1 1065.7465 549.7111)" class="st70 st69">Reyes León, Daniel</text>
<text transform="matrix(1 0 0 1 1065.7466 557.18)" class="st70 st69">Ruiz Balart, Macarena</text>
<text transform="matrix(1 0 0 1 1065.7466 565.6404)" class="st70 st69">Santibañez Boric, Mónica</text>
<text transform="matrix(1 0 0 1 1065.5166 572.9302)" class="st70 st69">Silva Roquefort, Rebeca</text>
<text transform="matrix(1 0 0 1 1065.7466 586.2925)" class="st70 st69">Soto Calquín, Leonardo</text>
<text transform="matrix(1 0 0 1 1065.7466 597.8747)" class="st70 st69">Stange Marcus, Hans</text>
<text transform="matrix(1 0 0 1 1065.7466 608.696)" class="st70 st69">Tapia Reyes, Mauricio</text>
<text transform="matrix(1 0 0 1 1066.0757 618.8651)" class="st70 st69">Vico Sánchez, Mauricio</text>
<text transform="matrix(1 0 0 1 1065.7466 636.8241)" class="st70 st69">Wechsler Pizarro, Andrea</text>
<text transform="matrix(1 0 0 1 1065.7466 657.0898)" class="st70 st69">Young Araya, Mariana</text>
<text transform="matrix(1 0 0 1 1065.7466 669.0608)" class="st70 st69">Zorzano Betancourt, Osvaldo</text>
<text transform="matrix(1 0 0 1 623.5859 105.9424)" class="st71 st68 st72">nota proyecto</text>
<text transform="matrix(1 0 0 1 1045.1244 69.6947)" class="st71 st68 st72">profesor guía</text>
<text transform="matrix(1 0 0 1 217.4696 153.6479)" class="st71 st68 st72">titulo profesional</text>
</svg>
